<svg xmlns="http://www.w3.org/2000/svg" viewBox="0 0 84 94">
  <defs>
    <linearGradient id="bg" x1="0.2" y1="0" x2="0.85" y2="1">
      <stop offset="0%" stop-color="#b89dff"></stop>
      <stop offset="35%" stop-color="#7d5cf0"></stop>
      <stop offset="100%" stop-color="#4a2db5"></stop>
    </linearGradient>
    <linearGradient id="topband" x1="0" y1="0" x2="0" y2="1">
      <stop offset="0%" stop-color="#8b6df5"></stop>
      <stop offset="100%" stop-color="#6244D6"></stop>
    </linearGradient>
    <radialGradient id="badge" cx="0.35" cy="0.25" r="0.85">
      <stop offset="0%" stop-color="#ff7280"></stop>
      <stop offset="55%" stop-color="#ee3a52"></stop>
      <stop offset="100%" stop-color="#c91c38"></stop>
    </radialGradient>
  </defs>
  <rect x="6" y="8" width="68" height="68" rx="17" fill="url(#bg)"></rect>
  <rect x="14" y="18" width="52" height="52" rx="6.5" fill="#ffffff"></rect>
  <path d="M 14 27 L 14 24.5 Q 14 18 20.5 18 L 59.5 18 Q 66 18 66 24.5 L 66 27 Z" fill="url(#topband)"></path>
  <rect x="19" y="32" width="20" height="4.5" rx="2.2" fill="#3a8fe6"></rect>
  <rect x="44" y="32" width="4.5" height="4.5" rx="1.5" fill="#e89311"></rect>
  <rect x="19" y="40" width="13" height="4.5" rx="2.2" fill="#1ea863"></rect>
  <rect x="38" y="40" width="22" height="4.5" rx="2.2" fill="#d62b86"></rect>
  <rect x="22" y="48" width="28" height="4.5" rx="2.2" fill="#d62b86"></rect>
  <rect x="35" y="58" width="4.5" height="4.5" rx="1.5" fill="#1ba892"></rect>
  <circle cx="66" cy="13" r="11" fill="url(#badge)"></circle>
  <text x="66" y="17.5" text-anchor="middle" font-size="13.5" font-weight="800" fill="white" font-family="-apple-system, sans-serif">1</text>
</svg>